<svg width="20" height="20" viewBox="0 0 20 20" fill="none" xmlns="http://www.w3.org/2000/svg">
<path fill-rule="evenodd" clip-rule="evenodd" d="M4.62478 4.63241L2.18383 5.00007L2 3.7796L5.66142 3.22811L6.21291 6.88952L4.99244 7.07335L4.62478 4.63241Z" fill="#707276"/>
<path fill-rule="evenodd" clip-rule="evenodd" d="M5.50024 3.53113C3.45478 4.96004 2.1168 7.33195 2.1168 10.0164C2.1168 14.3824 5.65618 17.9218 10.0222 17.9218C14.3883 17.9218 17.9277 14.3824 17.9277 10.0164C17.9277 5.66294 14.4087 2.13141 10.0601 2.11102L10.035 3.11095C13.8429 3.11786 16.9277 6.20687 16.9277 10.0164C16.9277 13.8301 13.836 16.9218 10.0222 16.9218C6.20847 16.9218 3.1168 13.8301 3.1168 10.0164C3.1168 7.82668 4.13598 5.87504 5.72584 4.60992L5.50024 4.61573V3.99861V3.53113Z" fill="#707276"/>
</svg>
